<?xml version="1.0" encoding="UTF-8"?>
<svg width="262px" height="161px" viewBox="0 0 262 161" version="1.1" xmlns="http://www.w3.org/2000/svg" xmlns:xlink="http://www.w3.org/1999/xlink">
    <!-- Generator: Sketch 46.1 (44463) - http://www.bohemiancoding.com/sketch -->
    <title>connectED Veritcal (White)</title>
    <desc>Created with Sketch.</desc>
    <defs></defs>
    <g id="ConnectED-Logo" stroke="none" stroke-width="1" fill="none" fill-rule="evenodd">
        <g id="connectED-Logo-Presentation" transform="translate(-493.000000, -246.000000)" fill="#FFFFFF">
            <g id="connectED-Veritcal-(White)" transform="translate(493.000000, 246.000000)">
                <g id="connectED" transform="translate(0.000000, 125.000000)">
                    <path d="M13.2522652,36 C18.1531029,36 22.4038294,33.4266055 24.554197,29.4908257 L18.0030772,25.706422 C17.2029405,27.4724771 15.3526242,28.5321101 13.1522481,28.5321101 C9.90169247,28.5321101 7.50128217,26.1605505 7.50128217,22.6788991 C7.50128217,19.1972477 9.90169247,16.8256881 13.1522481,16.8256881 C15.3526242,16.8256881 17.1529319,17.8853211 18.0030772,19.6513761 L24.554197,15.8165138 C22.4038294,11.9311927 18.1030943,9.35779817 13.2522652,9.35779817 C5.6509659,9.35779817 0,15.1605505 0,22.6788991 C0,30.1972477 5.6509659,36 13.2522652,36 Z M40.7930842,36 C33.4418277,36 27.540819,30.1972477 27.540819,22.6788991 C27.540819,15.1605505 33.4418277,9.35779817 40.7930842,9.35779817 C48.1443407,9.35779817 54.0453494,15.1605505 54.0453494,22.6788991 C54.0453494,30.1972477 48.1443407,36 40.7930842,36 Z M40.7930842,28.6330275 C44.0436398,28.6330275 46.5440672,26.2614679 46.5440672,22.6788991 C46.5440672,19.0963303 44.0436398,16.7247706 40.7930842,16.7247706 C37.5425286,16.7247706 35.0421012,19.0963303 35.0421012,22.6788991 C35.0421012,26.2614679 37.5425286,28.6330275 40.7930842,28.6330275 Z M74.6849888,9.35779817 C71.3844246,9.35779817 68.8839972,10.5688073 67.5337664,12.4357798 L67.5337664,10.0642202 L60.0324842,10.0642202 L60.0324842,35.293578 L67.5337664,35.293578 L67.5337664,21.5183486 C67.5337664,17.9357798 69.4340912,16.3211009 72.1845614,16.3211009 C74.5849717,16.3211009 76.535305,17.7844037 76.535305,20.912844 L76.535305,35.293578 L84.0365872,35.293578 L84.0365872,19.8027523 C84.0365872,12.9908257 79.7358521,9.35779817 74.6849888,9.35779817 Z M105.57638,9.35779817 C102.275816,9.35779817 99.7753889,10.5688073 98.4251581,12.4357798 L98.4251581,10.0642202 L90.923876,10.0642202 L90.923876,35.293578 L98.4251581,35.293578 L98.4251581,21.5183486 C98.4251581,17.9357798 100.325483,16.3211009 103.075953,16.3211009 C105.476363,16.3211009 107.426697,17.7844037 107.426697,20.912844 L107.426697,35.293578 L114.927979,35.293578 L114.927979,19.8027523 C114.927979,12.9908257 110.627244,9.35779817 105.57638,9.35779817 Z M128.516413,25.706422 C129.466575,28.3302752 131.766969,29.2385321 134.517439,29.2385321 C136.567789,29.2385321 138.318088,28.4311927 139.318259,27.3211009 L145.319285,30.8027523 C142.868866,34.233945 139.168234,36 134.417422,36 C125.86596,36 120.565054,30.1972477 120.565054,22.6788991 C120.565054,15.1605505 125.965977,9.35779817 133.867328,9.35779817 C141.168576,9.35779817 146.569499,15.059633 146.569499,22.6788991 C146.569499,23.7385321 146.469482,24.7477064 146.269448,25.706422 L128.516413,25.706422 Z M128.366387,20.0550459 L139.118225,20.0550459 C138.318088,17.1284404 136.067704,16.0688073 133.817319,16.0688073 C130.966832,16.0688073 129.066507,17.4816514 128.366387,20.0550459 Z M164.308642,36 C169.20948,36 173.460207,33.4266055 175.610574,29.4908257 L169.059455,25.706422 C168.259318,27.4724771 166.409001,28.5321101 164.208625,28.5321101 C160.95807,28.5321101 158.557659,26.1605505 158.557659,22.6788991 C158.557659,19.1972477 160.95807,16.8256881 164.208625,16.8256881 C166.409001,16.8256881 168.209309,17.8853211 169.059455,19.6513761 L175.610574,15.8165138 C173.460207,11.9311927 169.159472,9.35779817 164.308642,9.35779817 C156.707343,9.35779817 151.056377,15.1605505 151.056377,22.6788991 C151.056377,30.1972477 156.707343,36 164.308642,36 Z M195,17.3302752 L195,10.0642202 L189.84912,10.0642202 L189.84912,3 L182.347837,5.2706422 L182.347837,10.0642202 L178.347154,10.0642202 L178.347154,17.3302752 L182.347837,17.3302752 L182.347837,26.2614679 C182.347837,33.3256881 185.198325,36.3027523 195,35.293578 L195,28.4311927 C191.699436,28.6330275 189.84912,28.4311927 189.84912,26.2614679 L189.84912,17.3302752 L195,17.3302752 Z" id="connect"></path>
                    <path d="M210.968112,27.3 L210.968112,21.1 L223.418288,21.1 L223.418288,13.5 L210.968112,13.5 L210.968112,7.7 L224.663306,7.7 L224.663306,0 L203,0 L203,35 L224.912309,35 L224.912309,27.3 L210.968112,27.3 Z M245.067761,0 C254.679297,0 262,7.6 262,17.5 C262,27.4 254.679297,35 245.067761,35 L231.123564,35 L231.123564,0 L245.067761,0 Z M245.067761,27.3 C250.545838,27.3 254.330692,23.5 254.330692,17.5 C254.330692,11.5 250.545838,7.7 245.067761,7.7 L239.091677,7.7 L239.091677,27.3 L245.067761,27.3 Z" id="ED"></path>
                </g>
                <g id="Handshake" transform="translate(78.000000, 0.000000)">
                    <g id="Group-2" transform="translate(8.000000, 31.000000)">
                        <polygon id="Path-2" points="0.365283316 47.9000837 13.9294951 40.6542597 14.702237 31.2748215 50.2388811 39.1551111 48.9166824 51.0399408 54.6717493 52.1082073 69.194774 31.2748215 43.1565077 15.7754712 3.19940018 24.2303919"></polygon>
                        <path d="M16.869417,43.8627077 L16.869417,34.8605193 L45.3550644,41.7590107 L41.980247,53.7222821 L16.869417,43.8627077 Z M41.4833723,12.3711343 C33.3290162,14.447986 27.8177397,15.2495729 24.9495429,14.7758952 C22.081346,14.3022175 19.7905271,12.2121281 18.077086,8.5056269 C24.9082808,6.78651335 29.5775049,5.43757905 32.0847584,4.45882401 C34.5920119,3.48006897 36.8556764,2.12261564 38.8757521,0.386464038 L60.7374327,12.3711343 L86.07807,4.45882401 C88.6128245,19.7061841 89.092192,27.581974 87.5161725,28.0861937 C85.9401529,28.5904135 80.2317017,28.1434793 70.3908186,26.745391 L42.8003602,12.3711343 L41.4833723,12.3711343 Z" id="Combined-Shape"></path>
                    </g>
                    <path d="M52.5,105 C23.5050506,105 0,81.4949494 0,52.5 C0,23.5050506 23.5050506,0 52.5,0 C81.4949494,0 105,23.5050506 105,52.5 C105,81.4949494 81.4949494,105 52.5,105 Z M52.5,93.1132075 C74.9300552,93.1132075 93.1132075,74.9300552 93.1132075,52.5 C93.1132075,30.0699448 74.9300552,11.8867925 52.5,11.8867925 C30.0699448,11.8867925 11.8867925,30.0699448 11.8867925,52.5 C11.8867925,74.9300552 30.0699448,93.1132075 52.5,93.1132075 Z" id="Oval-2" fill-rule="nonzero"></path>
                </g>
            </g>
        </g>
    </g>
</svg>