<?xml version="1.0" encoding="UTF-8"?>
<svg width="225px" height="41px" viewBox="0 0 225 41" version="1.1" xmlns="http://www.w3.org/2000/svg" xmlns:xlink="http://www.w3.org/1999/xlink">
    <!-- Generator: Sketch 46.1 (44463) - http://www.bohemiancoding.com/sketch -->
    <title>connectED Horizontal (B&amp;W)</title>
    <desc>Created with Sketch.</desc>
    <defs></defs>
    <g id="ConnectED-Logo" stroke="none" stroke-width="1" fill="none" fill-rule="evenodd">
        <g id="Version-C-Copy" transform="translate(-38.000000, -62.000000)">
            <g id="connectED-Horizontal-(B&amp;W)" transform="translate(38.000000, 59.000000)">
                <text id="connectED" font-family="Gilroy-ExtraBold, Gilroy" font-size="33" font-weight="600" letter-spacing="1.14583361">
                    <tspan x="52" y="32" fill="#FFFFFF">connect</tspan>
                    <tspan x="184.133835" y="32" fill="#050102">ED</tspan>
                </text>
                <g id="Handshake" transform="translate(0.000000, 3.000000)">
                    <g id="Group-2" transform="translate(3.000000, 12.000000)">
                        <polygon id="Path-2" fill="#FFFFFF" points="0.142054623 18.6278103 5.41702586 15.8099899 5.71753662 12.1624306 19.5373426 15.2269877 19.0231543 19.8488659 21.2612358 20.2643028 26.9090788 12.1624306 16.7830863 6.13490547 1.24421118 9.4229302"></polygon>
                        <path d="M6.56032884,17.0577197 L6.56032884,13.5568686 L17.6380806,16.2396153 L16.3256516,20.8919986 L6.56032884,17.0577197 Z M16.1324225,4.81099668 C12.9612841,5.61866121 10.8180099,5.93038947 9.7026,5.74618147 C8.58719011,5.56197347 7.69631608,4.74916091 7.02997789,3.3077438 C9.68655364,2.63919964 11.502363,2.11461407 12.477406,1.73398711 C13.4524491,1.35336015 14.3327631,0.825461639 15.118348,0.15029157 L23.6201127,4.81099668 L33.474805,1.73398711 C34.4605429,7.66351603 34.6469636,10.7263232 34.0340671,10.9224087 C33.4211706,11.1184941 31.2012173,10.9446864 27.3742072,10.4009854 L16.6445845,4.81099668 L16.1324225,4.81099668 Z" id="Combined-Shape" fill="#050102"></path>
                    </g>
                    <path d="M20.5,41 C9.17816263,41 0,31.8218374 0,20.5 C0,9.17816263 9.17816263,0 20.5,0 C31.8218374,0 41,9.17816263 41,20.5 C41,31.8218374 31.8218374,41 20.5,41 Z M20.5,36.3584906 C29.2584025,36.3584906 36.3584906,29.2584025 36.3584906,20.5 C36.3584906,11.7415975 29.2584025,4.64150943 20.5,4.64150943 C11.7415975,4.64150943 4.64150943,11.7415975 4.64150943,20.5 C4.64150943,29.2584025 11.7415975,36.3584906 20.5,36.3584906 Z" id="Oval-2" fill="#FFFFFF" fill-rule="nonzero"></path>
                </g>
            </g>
        </g>
    </g>
</svg>