<?xml version="1.0" encoding="UTF-8"?>
<svg width="207px" height="207px" viewBox="0 0 207 207" version="1.1" xmlns="http://www.w3.org/2000/svg" xmlns:xlink="http://www.w3.org/1999/xlink">
    <!-- Generator: Sketch 46.1 (44463) - http://www.bohemiancoding.com/sketch -->
    <title>Handshake (White)</title>
    <desc>Created with Sketch.</desc>
    <defs></defs>
    <g id="ConnectED-Logo" stroke="none" stroke-width="1" fill="none" fill-rule="evenodd">
        <g id="connectED-Logo-Presentation" transform="translate(-978.000000, -392.000000)" fill="#FFFFFF">
            <g id="Handshake-(White)" transform="translate(978.000000, 392.000000)">
                <g id="Group-2" transform="translate(15.000000, 59.000000)">
                    <polygon id="Path-2" points="0.718390522 94.0260903 27.3946736 79.8028061 28.9143995 61.3913162 98.8031328 76.860033 96.2028087 100.189513 107.521107 102.286481 136.083056 61.3913162 84.8744651 30.9666657 6.2921537 47.563362"></polygon>
                    <path d="M34.1765201,86.1008706 L34.1765201,68.4299082 L90.1982932,81.9713914 L83.5611525,105.45485 L34.1765201,86.1008706 Z M81.5839654,24.2840785 C65.5470652,28.3608613 54.7082214,29.9343469 49.0674343,29.0045351 C43.4266471,28.0747232 38.9213699,23.9719551 35.5516025,16.6962306 C48.9862855,13.3216743 58.169093,10.6737663 63.1000248,8.75250639 C68.0309567,6.83124649 72.4828303,4.16661589 76.4556458,0.758614593 L119.450284,24.2840785 L169.286871,8.75250639 C174.271888,38.6825095 175.214644,54.1423934 172.115139,55.1321581 C169.015634,56.1219228 157.789013,55.2446074 138.435277,52.5002119 L84.1740418,24.2840785 L81.5839654,24.2840785 Z" id="Combined-Shape"></path>
                </g>
                <path d="M103.5,207 C46.3385284,207 0,160.661472 0,103.5 C0,46.3385284 46.3385284,0 103.5,0 C160.661472,0 207,46.3385284 207,103.5 C207,160.661472 160.661472,207 103.5,207 Z M103.5,183.566038 C147.719252,183.566038 183.566038,147.719252 183.566038,103.5 C183.566038,59.2807484 147.719252,23.4339623 103.5,23.4339623 C59.2807484,23.4339623 23.4339623,59.2807484 23.4339623,103.5 C23.4339623,147.719252 59.2807484,183.566038 103.5,183.566038 Z" id="Oval-2" fill-rule="nonzero"></path>
            </g>
        </g>
    </g>
</svg>