<?xml version="1.0" encoding="UTF-8"?>
<svg width="207px" height="207px" viewBox="0 0 207 207" version="1.1" xmlns="http://www.w3.org/2000/svg" xmlns:xlink="http://www.w3.org/1999/xlink">
    <!-- Generator: Sketch 46.1 (44463) - http://www.bohemiancoding.com/sketch -->
    <title>Handshake (Green)</title>
    <desc>Created with Sketch.</desc>
    <defs></defs>
    <g id="ConnectED-Logo" stroke="none" stroke-width="1" fill="none" fill-rule="evenodd">
        <g id="Handshake-(Green)">
            <g id="Group-2" transform="translate(15.570796, 60.451327)">
                <polygon id="Path-2" fill="#32D478" points="0.71747462 94.2458875 27.3597472 79.9893547 28.8775355 61.5348257 98.6771651 77.0397024 96.0801563 100.423718 107.384024 102.525588 135.909558 61.5348257 84.7662556 31.039054 6.2841316 47.674547"></polygon>
                <path d="M33.1342222,86.3021417 L33.1342222,68.5898712 L89.0845711,82.1630093 L82.4558923,105.701363 L33.1342222,86.3021417 Z M81.4799511,24.3408454 C65.4634968,28.4271582 54.638472,30.004322 49.0048764,29.0723366 C43.3712809,28.1403512 38.8717476,24.0279924 35.5062764,16.73526 C48.9238312,13.3528153 58.0949311,10.6987175 63.0195763,8.77296641 C67.9442215,6.84721534 72.3904193,4.17635585 76.3581697,0.760387945 L119.297993,24.3408454 L169.071041,8.77296641 C174.049703,38.7729344 174.991257,54.2689577 171.895703,55.2610361 C168.80015,56.2531145 157.587842,55.3737483 138.258781,52.6229374 L84.0667252,24.3408454 L81.4799511,24.3408454 Z" id="Combined-Shape" fill="#050102"></path>
            </g>
            <path d="M103.5,207 C46.3385284,207 0,160.661472 0,103.5 C0,46.3385284 46.3385284,0 103.5,0 C160.661472,0 207,46.3385284 207,103.5 C207,160.661472 160.661472,207 103.5,207 Z M103.5,183.566038 C147.719252,183.566038 183.566038,147.719252 183.566038,103.5 C183.566038,59.2807484 147.719252,23.4339623 103.5,23.4339623 C59.2807484,23.4339623 23.4339623,59.2807484 23.4339623,103.5 C23.4339623,147.719252 59.2807484,183.566038 103.5,183.566038 Z" id="Oval-2" fill="#32D478" fill-rule="nonzero"></path>
        </g>
    </g>
</svg>